<svg width="739" height="608" viewBox="0 0 739 608" fill="none" xmlns="http://www.w3.org/2000/svg">
<path d="M491.139 309.305C488.168 309.305 485.484 307.244 484.806 304.244C483.998 300.721 486.188 297.225 489.706 296.442L605.785 269.829V219.891C605.785 216.29 608.704 213.368 612.301 213.368C615.897 213.368 618.816 216.29 618.816 219.891V275.021C618.816 278.074 616.705 280.709 613.76 281.388L492.625 309.149C492.104 309.253 491.634 309.305 491.139 309.305Z" fill="#E1E1E1"/>
<g opacity="0.35">
<path d="M491.139 309.305C488.168 309.305 485.484 307.244 484.806 304.244C483.998 300.721 486.188 297.225 489.706 296.442L605.785 269.829V219.891C605.785 216.29 608.704 213.368 612.301 213.368C615.897 213.368 618.816 216.29 618.816 219.891V275.021C618.816 278.074 616.705 280.709 613.76 281.388L492.625 309.149C492.104 309.253 491.634 309.305 491.139 309.305Z" fill="url(#paint0_linear_12_52)"/>
</g>
<path d="M244.334 268.603C167.451 253.105 139.409 247.495 128.932 245.434V210.159C128.932 206.558 126.013 203.636 122.417 203.636C118.82 203.636 115.901 206.558 115.901 210.159V250.47C115.901 250.574 115.875 250.678 115.875 250.809C115.875 252.609 116.631 254.227 117.804 255.427C117.804 255.427 117.804 255.427 117.83 255.453C118.116 255.74 118.403 255.975 118.742 256.21C118.768 256.236 118.82 256.262 118.846 256.288C119.133 256.471 119.446 256.653 119.758 256.784C119.836 256.81 119.915 256.862 119.993 256.888C120.28 256.992 120.592 257.097 120.879 257.175C120.983 257.201 121.113 257.227 121.218 257.253C121.296 257.279 121.348 257.306 121.426 257.306C125.362 258.036 201.28 273.299 236.515 280.396V328.952C236.515 332.553 239.434 335.475 243.031 335.475C246.627 335.475 249.546 332.553 249.546 328.952V275.021C249.572 271.917 247.383 269.229 244.334 268.603Z" fill="#E1E1E1"/>
<path opacity="0.35" d="M244.334 268.603C167.451 253.105 139.409 247.495 128.932 245.434V210.159C128.932 206.558 126.013 203.636 122.417 203.636C118.82 203.636 115.901 206.558 115.901 210.159V250.47C115.901 250.574 115.875 250.678 115.875 250.809C115.875 252.609 116.631 254.227 117.804 255.427C117.804 255.427 117.804 255.427 117.83 255.453C118.116 255.74 118.403 255.975 118.742 256.21C118.768 256.236 118.82 256.262 118.846 256.288C119.133 256.471 119.446 256.653 119.758 256.784C119.836 256.81 119.915 256.862 119.993 256.888C120.28 256.992 120.592 257.097 120.879 257.175C120.983 257.201 121.113 257.227 121.218 257.253C121.296 257.279 121.348 257.306 121.426 257.306C125.362 258.036 201.28 273.299 236.515 280.396V328.952C236.515 332.553 239.434 335.475 243.031 335.475C246.627 335.475 249.546 332.553 249.546 328.952V275.021C249.572 271.917 247.383 269.229 244.334 268.603Z" fill="url(#paint1_linear_12_52)"/>
<path d="M106.467 190.434C104.773 190.486 103.131 191.634 101.906 193.878C99.1694 198.887 99.404 207.524 102.453 213.159C104.121 216.238 106.258 217.777 108.317 217.751L144.673 216.812L142.823 189.495L106.467 190.434Z" fill="#D9D9DA"/>
<path opacity="0.2" d="M106.467 190.434C104.773 190.486 103.131 191.634 101.906 193.878C99.1694 198.887 99.404 207.524 102.453 213.159C104.121 216.238 106.258 217.777 108.317 217.751L144.673 216.812L142.823 189.495L106.467 190.434Z" fill="url(#paint2_linear_12_52)"/>
<path d="M148.557 194.087C151.606 199.722 151.866 208.359 149.104 213.368C146.367 218.378 141.65 217.856 138.601 212.22C135.552 206.584 135.291 197.948 138.054 192.939C140.816 187.929 145.481 188.451 148.557 194.087Z" fill="white"/>
<path opacity="0.35" d="M148.557 194.087C151.606 199.722 151.866 208.359 149.104 213.368C146.367 218.378 141.65 217.856 138.601 212.22C135.552 206.584 135.291 197.948 138.054 192.939C140.816 187.929 145.481 188.451 148.557 194.087Z" fill="url(#paint3_linear_12_52)"/>
<path d="M146.133 198.496C147.697 201.392 147.827 205.828 146.42 208.411C145.012 210.994 142.589 210.707 141.025 207.811C139.461 204.915 139.331 200.479 140.738 197.896C142.146 195.339 144.569 195.6 146.133 198.496Z" fill="#782412"/>
<path d="M192.758 341.476L192.732 341.502C187.389 338.475 180.456 338.788 172.872 343.172C155.984 352.93 142.302 379.125 142.302 401.668C142.302 413.957 146.394 422.567 152.805 426.35L152.779 426.376L190.464 448.397L230.495 363.575L192.758 341.476Z" fill="#CFCFD1"/>
<path opacity="0.35" d="M192.758 341.476L192.732 341.502C187.389 338.475 180.456 338.788 172.872 343.172C155.984 352.93 142.302 379.125 142.302 401.668C142.302 413.957 146.394 422.567 152.805 426.35L152.779 426.376L190.464 448.397L230.495 363.575L192.758 341.476Z" fill="url(#paint4_linear_12_52)"/>
<mask id="mask0_12_52" style="mask-type:alpha" maskUnits="userSpaceOnUse" x="115" y="315" width="150" height="158">
<path d="M118.533 395.719L250.823 472.323L250.276 462.174L118.012 385.57L118.533 395.719Z" fill="#E1E1E1"/>
<path d="M115.875 374.716L248.165 451.32L247.618 441.17L115.354 364.566L115.875 374.716Z" fill="#E1E1E1"/>
<path d="M116.422 355.565L248.686 432.169L248.165 422.019L115.875 345.415L116.422 355.565Z" fill="#E1E1E1"/>
<path d="M123.615 340.432L255.905 417.036L255.358 406.886L123.068 330.282L123.615 340.432Z" fill="#E1E1E1"/>
<path d="M132.555 326.082L264.818 402.686L264.297 392.536L132.007 315.932L132.555 326.082Z" fill="#E1E1E1"/>
</mask>
<g mask="url(#mask0_12_52)">
<path opacity="0.35" d="M192.758 341.476L192.732 341.502C187.389 338.475 180.456 338.788 172.872 343.172C155.984 352.93 142.302 379.125 142.302 401.668C142.302 413.957 146.394 422.567 152.805 426.35L152.779 426.376L190.464 448.397L230.495 363.575L192.758 341.476Z" fill="url(#paint5_linear_12_52)"/>
</g>
<path d="M234.367 416.071C244.519 392.19 241.807 368.169 228.31 362.419C214.814 356.669 195.643 371.367 185.492 395.248C175.34 419.129 178.052 443.15 191.549 448.9C205.045 454.65 224.216 439.952 234.367 416.071Z" fill="white"/>
<path opacity="0.5" d="M240.45 387.944C240.45 410.487 226.768 436.682 209.88 446.441C192.992 456.199 179.309 445.84 179.309 423.298C179.309 400.755 192.992 374.559 209.88 364.801C226.742 355.043 240.45 365.401 240.45 387.944Z" fill="url(#paint6_linear_12_52)"/>
<path d="M222.472 411.005C227.686 398.74 226.297 386.404 219.37 383.453C212.443 380.502 202.601 388.052 197.387 400.318C192.173 412.583 193.562 424.919 200.489 427.87C207.416 430.821 217.258 423.27 222.472 411.005Z" fill="#782412"/>
<path d="M286.293 287.676V287.702C280.951 284.675 274.018 284.988 266.434 289.371C249.546 299.13 235.864 325.325 235.864 347.868C235.864 360.157 239.955 368.767 246.367 372.55L246.341 372.576L284.026 394.597L324.057 309.775L286.293 287.676Z" fill="#CFCFD1"/>
<path opacity="0.35" d="M286.293 287.676V287.702C280.951 284.675 274.018 284.988 266.434 289.371C249.546 299.13 235.864 325.325 235.864 347.868C235.864 360.157 239.955 368.767 246.367 372.55L246.341 372.576L284.026 394.597L324.057 309.775L286.293 287.676Z" fill="url(#paint7_linear_12_52)"/>
<path d="M327.902 362.242C338.053 338.361 335.341 314.34 321.845 308.59C308.348 302.84 289.177 317.538 279.026 341.419C268.875 365.3 271.587 389.321 285.083 395.071C298.58 400.821 317.75 386.123 327.902 362.242Z" fill="white"/>
<path opacity="0.5" d="M333.986 334.144C333.986 356.687 320.304 382.882 303.416 392.641C286.528 402.399 272.845 392.04 272.845 369.498C272.845 346.955 286.528 320.759 303.416 311.001C320.304 301.243 333.986 311.601 333.986 334.144Z" fill="url(#paint8_linear_12_52)"/>
<path d="M319.105 342.754C319.105 354.339 312.068 367.776 303.39 372.785C294.711 377.795 287.675 372.472 287.675 360.887C287.675 349.303 294.711 335.866 303.39 330.857C312.094 325.847 319.105 331.17 319.105 342.754Z" fill="#782412"/>
<path d="M380.272 233.458L380.246 233.484C374.903 230.458 367.971 230.771 360.387 235.154C343.499 244.912 329.816 271.108 329.816 293.651C329.816 305.94 333.908 314.55 340.319 318.333L340.293 318.359L377.979 340.38L418.01 255.557L380.272 233.458Z" fill="#CFCFD1"/>
<path d="M306.074 287.702L438.338 364.305L437.817 354.156L305.527 277.552L306.074 287.702Z" fill="#E1E1E1"/>
<path d="M303.39 266.698L435.68 343.302L435.132 333.153L302.869 256.549L303.39 266.698Z" fill="#E1E1E1"/>
<path d="M303.937 247.547L436.227 324.151L435.68 314.002L303.39 237.398L303.937 247.547Z" fill="#E1E1E1"/>
<path d="M311.13 232.415L443.42 309.018L442.873 298.869L310.609 222.265L311.13 232.415Z" fill="#E1E1E1"/>
<path d="M320.07 218.064L452.333 294.668L451.812 284.519L319.522 207.915L320.07 218.064Z" fill="#E1E1E1"/>
<path opacity="0.35" d="M380.272 233.458L380.246 233.484C374.903 230.458 367.971 230.771 360.387 235.154C343.499 244.912 329.816 271.108 329.816 293.651C329.816 305.94 333.908 314.55 340.319 318.333L340.293 318.359L377.979 340.38L418.01 255.557L380.272 233.458Z" fill="url(#paint9_linear_12_52)"/>
<path d="M421.877 308.007C432.028 284.126 429.316 260.105 415.82 254.355C402.323 248.605 383.153 263.303 373.001 287.184C362.85 311.065 365.562 335.086 379.058 340.836C392.555 346.586 411.725 331.888 421.877 308.007Z" fill="white"/>
<path opacity="0.5" d="M427.966 279.926C427.966 302.469 414.283 328.665 397.395 338.423C380.507 348.181 366.825 337.823 366.825 315.28C366.825 292.737 380.507 266.542 397.395 256.784C414.283 247.026 427.966 257.384 427.966 279.926Z" fill="url(#paint10_linear_12_52)"/>
<path d="M409.983 302.942C415.196 290.677 413.807 278.341 406.88 275.39C399.953 272.439 390.111 279.99 384.897 292.255C379.684 304.52 381.072 316.856 388 319.807C394.927 322.758 404.769 315.208 409.983 302.942Z" fill="#782412"/>
<path d="M209.88 418.21C208.342 418.21 206.779 417.871 205.293 417.14C200.133 414.609 197.996 408.348 200.524 403.182L266.825 267.82C269.353 262.654 275.608 260.515 280.768 263.046C285.929 265.577 288.066 271.838 285.538 277.004L219.236 412.366C217.438 416.071 213.737 418.21 209.88 418.21Z" fill="#C5C5C7"/>
<g opacity="0.5">
<path d="M209.88 418.21C208.342 418.21 206.779 417.871 205.293 417.14C200.133 414.609 197.996 408.348 200.524 403.182L266.825 267.82C269.353 262.654 275.608 260.515 280.768 263.046C285.929 265.577 288.066 271.838 285.538 277.004L219.236 412.366C217.438 416.071 213.737 418.21 209.88 418.21Z" fill="url(#paint11_linear_12_52)"/>
</g>
<path d="M294.164 367.906C292.783 367.906 291.375 367.619 290.02 367.045C284.73 364.749 282.306 358.618 284.599 353.321L323.327 263.672C325.621 258.375 331.745 255.949 337.036 258.245C342.326 260.541 344.75 266.672 342.457 271.969L303.729 361.618C302.035 365.558 298.204 367.906 294.164 367.906Z" fill="#C5C5C7"/>
<path d="M400.653 307.114C399.089 307.114 397.473 306.748 395.988 305.992L337.218 276.404L282.54 284.936C276.859 285.823 271.516 281.936 270.63 276.222C269.744 270.534 273.627 265.185 279.335 264.298L340.632 254.723L405.396 287.31C410.53 289.894 412.615 296.181 410.035 301.321C408.132 305 404.458 307.114 400.653 307.114Z" fill="#C5C5C7"/>
<path d="M215.353 421.393C213.815 421.393 212.252 421.054 210.766 420.323C205.606 417.792 203.469 411.531 205.997 406.365L272.298 271.003C274.826 265.837 281.081 263.698 286.241 266.229C291.402 268.76 293.539 275.021 291.011 280.187L224.709 415.549C222.911 419.254 219.21 421.393 215.353 421.393Z" fill="#E1E1E1"/>
<g opacity="0.35">
<path d="M215.353 421.393C213.815 421.393 212.252 421.054 210.766 420.323C205.606 417.792 203.469 411.531 205.997 406.365L272.298 271.003C274.826 265.837 281.081 263.698 286.241 266.229C291.402 268.76 293.539 275.021 291.011 280.187L224.709 415.549C222.911 419.254 219.21 421.393 215.353 421.393Z" fill="url(#paint12_linear_12_52)"/>
</g>
<path d="M299.611 371.089C298.23 371.089 296.822 370.802 295.467 370.228C290.176 367.932 287.753 361.801 290.046 356.504L328.774 266.855C331.067 261.558 337.192 259.132 342.482 261.428C347.773 263.724 350.197 269.855 347.903 275.152L309.175 364.801C307.481 368.741 303.65 371.089 299.611 371.089Z" fill="#D9D9DA"/>
<path d="M406.1 310.297C404.536 310.297 402.92 309.932 401.435 309.175L342.665 279.587L287.987 288.119C282.306 289.006 276.963 285.119 276.077 279.405C275.191 273.717 279.074 268.368 284.782 267.481L346.079 257.906L410.843 290.494C415.977 293.077 418.062 299.365 415.482 304.505C413.605 308.183 409.905 310.297 406.1 310.297Z" fill="#D9D9DA"/>
<path d="M224.944 307.401L264.532 284.519L319.731 316.428L280.169 339.31L224.944 307.401Z" fill="white"/>
<path opacity="0.2" d="M224.944 307.401L264.532 284.519L319.731 316.428L280.169 339.31L224.944 307.401Z" fill="url(#paint13_linear_12_52)"/>
<path d="M264.532 246.452V284.623L311.73 311.914V273.743L264.532 246.452Z" fill="#D9D9DA"/>
<path opacity="0.5" d="M264.532 246.452V284.623L311.73 311.914V273.743L264.532 246.452Z" fill="url(#paint14_linear_12_52)"/>
<path d="M282.332 302.261L280.221 302.443C279.595 301.843 278.866 301.269 277.98 300.747C271.542 297.016 260.31 297.486 252.856 301.791C251.032 302.835 249.598 304.035 248.582 305.287L246.705 305.47V310.192C246.784 312.488 248.191 314.68 251.032 316.324C257.469 320.055 268.702 319.585 276.155 315.28C280.247 312.906 282.332 309.879 282.28 306.983V302.261H282.332Z" fill="#CFCFD1"/>
<path opacity="0.35" d="M282.332 302.261L280.221 302.443C279.595 301.843 278.866 301.269 277.98 300.747C271.542 297.016 260.31 297.486 252.856 301.791C251.032 302.835 249.598 304.035 248.582 305.287L246.705 305.47V310.192C246.784 312.488 248.191 314.68 251.032 316.324C257.469 320.055 268.702 319.585 276.155 315.28C280.247 312.906 282.332 309.879 282.28 306.983V302.261H282.332Z" fill="url(#paint15_linear_12_52)"/>
<path d="M276.181 310.558C268.754 314.863 257.495 315.332 251.058 311.601C244.621 307.87 245.428 301.374 252.856 297.095C260.284 292.79 271.542 292.32 277.98 296.051C284.417 299.756 283.609 306.253 276.181 310.558Z" fill="#D9D9DA"/>
<path opacity="0.35" d="M276.181 310.558C268.754 314.863 257.495 315.332 251.058 311.601C244.621 307.87 245.428 301.374 252.856 297.095C260.284 292.79 271.542 292.32 277.98 296.051C284.417 299.756 283.609 306.253 276.181 310.558Z" fill="url(#paint16_linear_12_52)"/>
<path d="M263.75 261.767C258.251 262.185 253.977 266.777 253.977 272.308V304.505C253.898 305.966 254.732 307.375 256.531 308.444C260.362 310.662 267.034 310.375 271.438 307.818C273.888 306.409 275.113 304.583 275.087 302.861V272.308C275.087 266.177 269.874 261.324 263.75 261.767Z" fill="#CFCFD1"/>
<g opacity="0.35">
<path d="M263.75 261.767C258.251 262.185 253.977 266.777 253.977 272.308V304.505C253.898 305.966 254.732 307.375 256.531 308.444C260.362 310.662 267.034 310.375 271.438 307.818C273.888 306.409 275.113 304.583 275.087 302.861V272.308C275.087 266.177 269.874 261.324 263.75 261.767Z" fill="url(#paint17_linear_12_52)"/>
</g>
<path d="M264.532 246.452L389.003 174.492L508.444 243.529L344.88 338.084L272.663 296.338L311.73 273.743L264.532 246.452Z" fill="white"/>
<path opacity="0.2" d="M264.532 246.452L389.003 174.492L508.444 243.529L344.88 338.084L272.663 296.338L311.73 273.743L264.532 246.452Z" fill="url(#paint18_linear_12_52)"/>
<path d="M556.424 209.846L508.444 290.285V243.529L490.331 233.067L467.162 246.452L512.119 171.074L556.424 209.846Z" fill="#D9D9DA"/>
<path opacity="0.5" d="M556.424 209.846L508.444 290.285V243.529L490.331 233.067L467.162 246.452L512.119 171.074L556.424 209.846Z" fill="url(#paint19_linear_12_52)"/>
<path d="M373.496 192.312L467.162 246.452L512.119 171.074L420.694 116.048L373.496 192.312Z" fill="#CFCFD1"/>
<path opacity="0.2" d="M373.496 192.312L467.162 246.452L512.119 171.074L420.694 116.048L373.496 192.312Z" fill="url(#paint20_linear_12_52)"/>
<path d="M344.88 425.411L508.444 330.857V243.529L344.88 338.084V425.411Z" fill="#CFCFD1"/>
<path d="M500.052 309.697L462.862 331.196V281.544L500.052 260.045V309.697Z" fill="#E1E1E1"/>
<path d="M452.125 305.052L414.934 326.552V309.279L452.125 287.78V305.052Z" fill="#F26C4F"/>
<path opacity="0.2" d="M344.88 425.411L508.444 330.857V243.529L344.88 338.084V425.411Z" fill="url(#paint21_linear_12_52)"/>
<path d="M344.88 425.411L224.944 356.139V307.374L272.663 334.901V296.338L344.88 338.084V425.411Z" fill="#D9D9DA"/>
<path d="M232.502 349.668L253.612 361.879V333.701L232.502 321.49V349.668Z" fill="#CFCFD1"/>
<path d="M256.531 346.042L280.403 359.844V348.755L256.531 334.953V346.042Z" fill="#E1E1E1"/>
<path d="M256.531 363.471L280.403 377.273V366.184L256.531 352.382V363.471Z" fill="#E1E1E1"/>
<path d="M278.631 333.988L336.593 367.149V338.971L278.631 305.809V333.988Z" fill="#CFCFD1"/>
<path d="M262.838 378.03V414.87L296.718 434.465V397.598L262.838 378.03Z" fill="#D9D9DA"/>
<path opacity="0.35" d="M344.88 338.084L272.663 296.338V334.901L224.944 307.374V356.139L262.838 378.029V414.87L296.718 434.465V397.598L344.88 425.411V338.084Z" fill="url(#paint22_linear_12_52)"/>
<path d="M296.718 434.465L328.618 416.018L296.718 397.598V434.465Z" fill="#CFCFD1"/>
<path opacity="0.75" d="M296.718 434.465L328.618 416.018L296.718 397.598V434.465Z" fill="url(#paint23_linear_12_52)"/>
<path d="M430.05 436.5C428.669 436.5 427.262 436.213 425.906 435.639C420.616 433.343 418.192 427.211 420.486 421.915L459.213 332.266C461.507 326.969 467.631 324.543 472.922 326.839C478.212 329.135 480.636 335.266 478.343 340.563L439.615 430.212C437.921 434.152 434.09 436.5 430.05 436.5Z" fill="#C5C5C7"/>
<path d="M430.05 436.5C428.669 436.5 427.262 436.213 425.906 435.639C420.616 433.343 418.192 427.211 420.486 421.915L459.213 332.266C461.507 326.969 467.631 324.543 472.922 326.839C478.212 329.135 480.636 335.266 478.343 340.563L439.615 430.212C437.921 434.152 434.09 436.5 430.05 436.5Z" fill="url(#paint24_linear_12_52)"/>
<path d="M541.23 355.956L476.466 323.368L418.062 332.5C417.619 332.187 417.176 331.9 416.681 331.639C411.52 329.109 405.266 331.248 402.738 336.414L336.436 471.775C333.908 476.941 336.045 483.203 341.206 485.734C342.691 486.465 344.255 486.804 345.792 486.804C349.65 486.804 353.35 484.664 355.149 480.959L417.541 353.608C417.827 353.582 418.114 353.608 418.401 353.556L473.078 345.024L531.848 374.612C533.359 375.368 534.949 375.733 536.513 375.733C540.318 375.733 543.993 373.62 545.843 369.993C548.449 364.801 546.364 358.539 541.23 355.956Z" fill="#C5C5C7"/>
<path d="M541.23 355.956L476.466 323.368L418.062 332.5C417.619 332.187 417.176 331.9 416.681 331.639C411.52 329.109 405.266 331.248 402.738 336.414L336.436 471.775C333.908 476.941 336.045 483.203 341.206 485.734C342.691 486.465 344.255 486.804 345.792 486.804C349.65 486.804 353.35 484.664 355.149 480.959L417.541 353.608C417.827 353.582 418.114 353.608 418.401 353.556L473.078 345.024L531.848 374.612C533.359 375.368 534.949 375.733 536.513 375.733C540.318 375.733 543.993 373.62 545.843 369.993C548.449 364.801 546.364 358.539 541.23 355.956Z" fill="url(#paint25_linear_12_52)"/>
<path d="M351.239 489.987C349.702 489.987 348.138 489.648 346.652 488.917C341.492 486.386 339.355 480.124 341.883 474.958L408.184 339.597C410.712 334.431 416.967 332.292 422.128 334.823C427.288 337.353 429.425 343.615 426.897 348.781L360.596 484.143C358.797 487.847 355.097 489.987 351.239 489.987Z" fill="#E1E1E1"/>
<g opacity="0.35">
<path d="M351.239 489.987C349.702 489.987 348.138 489.648 346.652 488.917C341.492 486.386 339.355 480.124 341.883 474.958L408.184 339.597C410.712 334.431 416.967 332.292 422.128 334.823C427.288 337.353 429.425 343.615 426.897 348.781L360.596 484.143C358.797 487.847 355.097 489.987 351.239 489.987Z" fill="url(#paint26_linear_12_52)"/>
</g>
<path d="M435.523 439.683C434.142 439.683 432.735 439.396 431.38 438.822C426.089 436.526 423.665 430.395 425.959 425.098L464.687 335.449C466.98 330.152 473.105 327.726 478.395 330.022C483.686 332.318 486.109 338.449 483.816 343.746L445.088 433.395C443.394 437.335 439.537 439.683 435.523 439.683Z" fill="#E1E1E1"/>
<g opacity="0.35">
<path d="M435.523 439.683C434.142 439.683 432.735 439.396 431.38 438.822C426.089 436.526 423.665 430.395 425.959 425.098L464.687 335.449C466.98 330.152 473.105 327.726 478.395 330.022C483.686 332.318 486.109 338.449 483.816 343.746L445.088 433.395C443.394 437.335 439.537 439.683 435.523 439.683Z" fill="url(#paint27_linear_12_52)"/>
</g>
<path d="M541.986 378.89C540.422 378.89 538.806 378.525 537.321 377.769L478.551 348.181L423.874 356.713C418.192 357.6 412.85 353.712 411.964 347.999C411.077 342.311 414.961 336.962 420.668 336.075L481.966 326.499L546.729 359.087C551.863 361.67 553.948 367.958 551.368 373.098C549.492 376.803 545.817 378.89 541.986 378.89Z" fill="#E1E1E1"/>
<g opacity="0.35">
<path d="M541.986 378.89C540.422 378.89 538.806 378.525 537.321 377.769L478.551 348.181L423.874 356.713C418.192 357.6 412.85 353.712 411.964 347.999C411.077 342.311 414.961 336.962 420.668 336.075L481.966 326.499L546.729 359.087C551.863 361.67 553.948 367.958 551.368 373.098C549.492 376.803 545.817 378.89 541.986 378.89Z" fill="url(#paint28_linear_12_52)"/>
</g>
<path d="M363.15 440.153V440.179C357.807 437.152 350.875 437.465 343.291 441.849C326.402 451.607 312.72 477.802 312.72 500.345C312.72 512.634 316.812 521.244 323.223 525.027L323.197 525.053L360.882 547.074L400.913 462.252L363.15 440.153Z" fill="#CFCFD1"/>
<path opacity="0.35" d="M363.15 440.153V440.179C357.807 437.152 350.875 437.465 343.291 441.849C326.402 451.607 312.72 477.802 312.72 500.345C312.72 512.634 316.812 521.244 323.223 525.027L323.197 525.053L360.882 547.074L400.913 462.252L363.15 440.153Z" fill="url(#paint29_linear_12_52)"/>
<mask id="mask1_12_52" style="mask-type:alpha" maskUnits="userSpaceOnUse" x="285" y="414" width="151" height="157">
<path d="M288.951 494.396L421.241 571L420.694 560.851L288.43 484.247L288.951 494.396Z" fill="#E1E1E1"/>
<path d="M286.293 473.393L418.583 549.997L418.036 539.847L285.746 463.243L286.293 473.393Z" fill="#E1E1E1"/>
<path d="M286.841 454.242L419.104 530.846L418.583 520.696L286.293 444.092L286.841 454.242Z" fill="#E1E1E1"/>
<path d="M294.034 439.109L426.297 515.713L425.776 505.563L293.486 428.959L294.034 439.109Z" fill="#E1E1E1"/>
<path d="M302.947 424.759L435.237 501.363L434.689 491.213L302.425 414.609L302.947 424.759Z" fill="#E1E1E1"/>
</mask>
<g mask="url(#mask1_12_52)">
<path opacity="0.35" d="M363.15 440.153V440.179C357.807 437.152 350.875 437.465 343.291 441.849C326.402 451.607 312.72 477.802 312.72 500.345C312.72 512.634 316.812 521.244 323.223 525.027L323.197 525.053L360.882 547.074L400.913 462.252L363.15 440.153Z" fill="url(#paint30_linear_12_52)"/>
</g>
<path d="M404.789 514.746C414.94 490.865 412.229 466.844 398.732 461.094C385.235 455.344 366.065 470.042 355.913 493.923C345.762 517.804 348.474 541.824 361.971 547.575C375.467 553.325 394.638 538.627 404.789 514.746Z" fill="white"/>
<path opacity="0.5" d="M410.843 486.621C410.843 509.164 397.16 535.359 380.272 545.118C363.384 554.876 349.702 544.517 349.702 521.975C349.702 499.432 363.384 473.236 380.272 463.478C397.16 453.72 410.843 464.078 410.843 486.621Z" fill="url(#paint31_linear_12_52)"/>
<path d="M392.894 509.677C398.108 497.412 396.719 485.077 389.792 482.125C382.864 479.174 373.022 486.725 367.809 498.99C362.595 511.256 363.984 523.591 370.911 526.542C377.838 529.493 387.68 521.943 392.894 509.677Z" fill="#782412"/>
<path d="M456.711 386.353L456.685 386.379C451.343 383.352 444.41 383.665 436.826 388.049C419.938 397.807 406.256 424.002 406.256 446.545C406.256 458.834 410.347 467.444 416.759 471.227L416.733 471.253L454.418 493.274L494.449 408.452L456.711 386.353Z" fill="#CFCFD1"/>
<path opacity="0.35" d="M456.711 386.353L456.685 386.379C451.343 383.352 444.41 383.665 436.826 388.049C419.938 397.807 406.256 424.002 406.256 446.545C406.256 458.834 410.347 467.444 416.759 471.227L416.733 471.253L454.418 493.274L494.449 408.452L456.711 386.353Z" fill="url(#paint32_linear_12_52)"/>
<mask id="mask2_12_52" style="mask-type:alpha" maskUnits="userSpaceOnUse" x="379" y="360" width="150" height="158">
<path d="M382.513 440.596L514.777 517.2L514.256 507.051L381.966 430.447L382.513 440.596Z" fill="#E1E1E1"/>
<path d="M379.829 419.593L512.119 496.197L511.572 486.047L379.308 409.443L379.829 419.593Z" fill="#E1E1E1"/>
<path d="M380.376 400.442L512.666 477.046L512.119 466.896L379.829 390.292L380.376 400.442Z" fill="#E1E1E1"/>
<path d="M387.569 385.309L519.859 461.913L519.312 451.763L387.048 375.159L387.569 385.309Z" fill="#E1E1E1"/>
<path d="M396.509 370.959L528.772 447.563L528.251 437.413L395.961 360.809L396.509 370.959Z" fill="#E1E1E1"/>
</mask>
<g mask="url(#mask2_12_52)">
<path opacity="0.35" d="M456.711 386.353L456.685 386.379C451.343 383.352 444.41 383.665 436.826 388.049C419.938 397.807 406.256 424.002 406.256 446.545C406.256 458.834 410.347 467.444 416.759 471.227L416.733 471.253L454.418 493.274L494.449 408.452L456.711 386.353Z" fill="url(#paint33_linear_12_52)"/>
</g>
<path d="M498.347 460.925C508.498 437.044 505.787 413.023 492.29 407.273C478.793 401.523 459.623 416.221 449.471 440.102C439.32 463.983 442.032 488.004 455.529 493.754C469.025 499.504 488.196 484.806 498.347 460.925Z" fill="white"/>
<path opacity="0.5" d="M504.405 432.821C504.405 455.364 490.722 481.56 473.834 491.318C456.946 501.076 443.264 490.717 443.264 468.175C443.264 445.632 456.946 419.436 473.834 409.678C490.722 399.92 504.405 410.278 504.405 432.821Z" fill="url(#paint34_linear_12_52)"/>
<path d="M489.523 441.431C489.523 453.016 482.487 466.453 473.808 471.462C465.129 476.472 458.093 471.149 458.093 459.565C458.093 447.98 465.129 434.543 473.808 429.534C482.487 424.524 489.523 429.847 489.523 441.431Z" fill="#782412"/>
<path d="M550.352 332.474L550.326 332.5C544.983 329.474 538.051 329.787 530.467 334.17C513.579 343.928 499.896 370.124 499.896 392.667C499.896 404.956 503.988 413.566 510.399 417.349L510.373 417.375L548.058 439.396L588.089 354.574L550.352 332.474Z" fill="#CFCFD1"/>
<path opacity="0.35" d="M550.352 332.474L550.326 332.5C544.983 329.474 538.051 329.787 530.467 334.17C513.579 343.928 499.896 370.124 499.896 392.667C499.896 404.956 503.988 413.566 510.399 417.349L510.373 417.375L548.058 439.396L588.089 354.574L550.352 332.474Z" fill="url(#paint35_linear_12_52)"/>
<mask id="mask3_12_52" style="mask-type:alpha" maskUnits="userSpaceOnUse" x="472" y="306" width="151" height="158">
<path d="M476.154 386.718L608.418 463.322L607.87 453.172L475.607 376.568L476.154 386.718Z" fill="#E1E1E1"/>
<path d="M473.469 365.714L605.759 442.318L605.212 432.169L472.948 355.565L473.469 365.714Z" fill="#E1E1E1"/>
<path d="M474.017 346.564L606.306 423.141L605.759 413.018L473.469 336.414L474.017 346.564Z" fill="#E1E1E1"/>
<path d="M481.21 331.431L613.5 408.034L612.952 397.885L480.688 321.281L481.21 331.431Z" fill="#E1E1E1"/>
<path d="M490.149 317.081L622.413 393.684L621.892 383.535L489.602 306.931L490.149 317.081Z" fill="#E1E1E1"/>
</mask>
<g mask="url(#mask3_12_52)">
<path opacity="0.35" d="M550.352 332.474L550.326 332.5C544.983 329.474 538.051 329.787 530.467 334.17C513.579 343.928 499.896 370.124 499.896 392.667C499.896 404.956 503.988 413.566 510.399 417.349L510.373 417.375L548.058 439.396L588.089 354.574L550.352 332.474Z" fill="url(#paint36_linear_12_52)"/>
</g>
<path d="M591.959 407.042C602.11 383.161 599.399 359.14 585.902 353.39C572.405 347.64 553.235 362.338 543.084 386.219C532.932 410.1 535.644 434.12 549.141 439.871C562.637 445.621 581.808 430.923 591.959 407.042Z" fill="white"/>
<path opacity="0.5" d="M598.045 378.943C598.045 401.486 584.363 427.681 567.474 437.439C550.586 447.197 536.904 436.839 536.904 414.296C536.904 391.753 550.586 365.558 567.474 355.8C584.336 346.042 598.045 356.4 598.045 378.943Z" fill="url(#paint37_linear_12_52)"/>
<path d="M580.065 401.978C585.279 389.712 583.89 377.377 576.963 374.425C570.036 371.474 560.194 379.025 554.98 391.29C549.766 403.556 551.155 415.891 558.082 418.842C565.009 421.794 574.851 414.243 580.065 401.978Z" fill="#782412"/>
<path d="M420.486 334.796C418.896 333.909 416.811 333.987 414.57 335.292C409.54 338.214 405.448 346.016 405.448 352.747C405.448 356.4 406.673 358.983 408.575 360.105L415.221 364.123L427.157 338.84L420.486 334.796Z" fill="#D9D9DA"/>
<path opacity="0.35" d="M420.486 334.796C418.896 333.909 416.811 333.987 414.57 335.292C409.54 338.214 405.448 346.016 405.448 352.747C405.448 356.4 406.673 358.983 408.575 360.105L415.221 364.123L427.157 338.84L420.486 334.796Z" fill="url(#paint38_linear_12_52)"/>
<path d="M430.102 346.12C430.102 352.851 426.011 360.653 420.981 363.549C415.951 366.471 411.859 363.366 411.859 356.661C411.859 349.929 415.951 342.128 420.981 339.232C426.011 336.31 430.102 339.388 430.102 346.12Z" fill="white"/>
<path opacity="0.35" d="M430.102 346.12C430.102 352.851 426.011 360.653 420.981 363.549C415.951 366.471 411.859 363.366 411.859 356.661C411.859 349.929 415.951 342.128 420.981 339.232C426.011 336.31 430.102 339.388 430.102 346.12Z" fill="url(#paint39_linear_12_52)"/>
<path d="M425.672 348.677C425.672 352.121 423.587 356.139 420.981 357.627C418.401 359.114 416.29 357.522 416.29 354.078C416.29 350.634 418.375 346.616 420.981 345.129C423.561 343.641 425.672 345.233 425.672 348.677Z" fill="#782412"/>
<path d="M481.913 325.482C480.324 324.595 478.239 324.673 475.997 325.978C470.967 328.9 466.876 336.701 466.876 343.407C466.876 347.059 468.101 349.642 470.003 350.764L476.649 354.782L488.585 329.5L481.913 325.482Z" fill="#D9D9DA"/>
<path opacity="0.35" d="M481.913 325.482C480.324 324.595 478.239 324.673 475.997 325.978C470.967 328.9 466.876 336.701 466.876 343.407C466.876 347.059 468.101 349.642 470.003 350.764L476.649 354.782L488.585 329.5L481.913 325.482Z" fill="url(#paint40_linear_12_52)"/>
<path d="M491.53 336.805C491.53 343.537 487.439 351.338 482.409 354.26C477.379 357.183 473.287 354.078 473.287 347.372C473.287 340.641 477.379 332.84 482.409 329.917C487.465 326.995 491.53 330.074 491.53 336.805Z" fill="white"/>
<path opacity="0.35" d="M491.53 336.805C491.53 343.537 487.439 351.338 482.409 354.26C477.379 357.183 473.287 354.078 473.287 347.372C473.287 340.641 477.379 332.84 482.409 329.917C487.465 326.995 491.53 330.074 491.53 336.805Z" fill="url(#paint41_linear_12_52)"/>
<path d="M487.1 339.362C487.1 342.807 485.015 346.825 482.409 348.312C479.829 349.799 477.717 348.208 477.717 344.764C477.717 341.319 479.802 337.301 482.409 335.814C485.015 334.327 487.1 335.918 487.1 339.362Z" fill="#782412"/>
<path d="M275.634 388.101C277.224 387.214 279.309 387.292 281.55 388.596C286.58 391.519 290.672 399.32 290.672 406.051C290.672 409.704 289.447 412.287 287.544 413.409L280.899 417.427L268.962 392.145L275.634 388.101Z" fill="#CFCFD1"/>
<path opacity="0.35" d="M275.634 388.101C277.224 387.214 279.309 387.292 281.55 388.596C286.58 391.519 290.672 399.32 290.672 406.051C290.672 409.704 289.447 412.287 287.544 413.409L280.899 417.427L268.962 392.145L275.634 388.101Z" fill="url(#paint42_linear_12_52)"/>
<path d="M266.017 399.425C266.017 406.156 270.109 413.957 275.139 416.88C280.169 419.802 284.26 416.697 284.26 409.965C284.26 403.234 280.169 395.433 275.139 392.536C270.109 389.64 266.017 392.693 266.017 399.425Z" fill="white"/>
<path opacity="0.35" d="M266.017 399.425C266.017 406.156 270.109 413.957 275.139 416.88C280.169 419.802 284.26 416.697 284.26 409.965C284.26 403.234 280.169 395.433 275.139 392.536C270.109 389.64 266.017 392.693 266.017 399.425Z" fill="url(#paint43_linear_12_52)"/>
<path d="M270.448 401.981C270.448 405.426 272.533 409.444 275.139 410.931C277.745 412.418 279.83 410.827 279.83 407.383C279.83 403.938 277.745 399.92 275.139 398.433C272.533 396.946 270.448 398.537 270.448 401.981Z" fill="#782412"/>
<path d="M354.445 230.98V218.795L333.387 230.98V243.164L354.445 230.98Z" fill="#D9D9DA"/>
<path opacity="0.35" d="M354.445 230.98V218.795L333.387 230.98V243.164L354.445 230.98Z" fill="url(#paint44_linear_12_52)"/>
<path d="M354.445 218.795L326.507 202.645L305.449 214.829L333.387 230.98L354.445 218.795Z" fill="#E1E1E1"/>
<path opacity="0.2" d="M354.445 218.795L326.507 202.645L305.449 214.829L333.387 230.98L354.445 218.795Z" fill="url(#paint45_linear_12_52)"/>
<path d="M333.387 243.164L305.449 227.014V214.829L333.387 230.98V243.164Z" fill="#CFCFD1"/>
<path opacity="0.35" d="M333.387 243.164L305.449 227.014V214.829L333.387 230.98V243.164Z" fill="url(#paint46_linear_12_52)"/>
<path d="M401.226 241.677L397.004 242.068C395.779 240.868 394.293 239.72 392.521 238.703C379.621 231.24 357.129 232.18 342.248 240.79C338.599 242.903 335.732 245.277 333.7 247.782L329.947 248.121V257.593C330.077 262.185 332.944 266.568 338.625 269.855C351.526 277.318 374.017 276.378 388.899 267.768C397.108 263.02 401.252 256.94 401.174 251.174H401.2V241.677H401.226Z" fill="#CFCFD1"/>
<path opacity="0.35" d="M401.226 241.677L397.004 242.068C395.779 240.868 394.293 239.72 392.521 238.703C379.621 231.24 357.129 232.18 342.248 240.79C338.599 242.903 335.732 245.277 333.7 247.782L329.947 248.121V257.593C330.077 262.185 332.944 266.568 338.625 269.855C351.526 277.318 374.017 276.378 388.899 267.768C397.108 263.02 401.252 256.94 401.174 251.174H401.2V241.677H401.226Z" fill="url(#paint47_linear_12_52)"/>
<path d="M368.063 264.986C387.71 262.589 402.538 251.623 401.183 240.494C399.828 229.365 382.803 222.287 363.156 224.685C343.509 227.082 328.681 238.047 330.036 249.176C331.391 260.305 348.416 267.384 368.063 264.986Z" fill="#D9D9DA"/>
<path opacity="0.2" d="M388.925 258.297C374.043 266.907 351.526 267.82 338.652 260.384C325.751 252.922 327.367 239.929 342.274 231.319C357.155 222.709 379.673 221.795 392.547 229.231C405.422 236.693 403.806 249.687 388.925 258.297Z" fill="url(#paint48_linear_12_52)"/>
<path d="M386.736 158.942L344.437 162.073V246.191C344.281 249.139 345.949 251.957 349.572 254.044C357.234 258.48 370.577 257.906 379.412 252.818C384.312 249.974 386.788 246.347 386.71 242.903V158.942H386.736Z" fill="#CFCFD1"/>
<path opacity="0.35" d="M386.736 158.942L344.437 162.073V246.191C344.281 249.139 345.949 251.957 349.572 254.044C357.234 258.48 370.577 257.906 379.412 252.818C384.312 249.974 386.788 246.347 386.71 242.903V158.942H386.736Z" fill="url(#paint49_linear_12_52)"/>
<path d="M379.438 168.7C370.603 173.814 357.234 174.362 349.598 169.926C341.935 165.491 342.9 157.768 351.735 152.68C360.57 147.566 373.939 147.018 381.575 151.454C389.238 155.863 388.273 163.586 379.438 168.7Z" fill="#D9D9DA"/>
<path d="M423.874 143.235C399.037 116.987 371.333 100.993 346.496 98.5145C345.167 98.3841 344.02 98.7233 343.134 99.4277L305.188 121.527L389.759 221.874L426.975 200.401C428.565 199.357 429.503 197.27 429.503 194.452V156.385C429.477 152.028 427.262 146.809 423.874 143.235Z" fill="#D9D9DA"/>
<path d="M391.87 178.145C391.87 178.145 382.957 192.182 377.823 207.758L389.707 221.874L426.923 200.401C428.513 199.357 429.451 197.27 429.451 194.452V156.411L391.87 178.145Z" fill="#CFCFD1"/>
<path opacity="0.35" d="M423.874 143.235C399.037 116.987 371.333 100.993 346.496 98.5145C345.167 98.3841 344.02 98.7233 343.134 99.4277L305.188 121.527L389.759 221.874L426.975 200.401C428.565 199.357 429.503 197.27 429.503 194.452V156.385C429.477 152.028 427.262 146.809 423.874 143.235Z" fill="url(#paint50_linear_12_52)"/>
<path d="M386.266 222.865C361.43 220.387 333.726 204.367 308.889 178.145C305.501 174.57 303.286 169.378 303.286 165.021V126.954C303.286 122.597 305.501 119.962 308.889 120.301C333.726 122.779 361.43 138.799 386.266 165.021C389.654 168.596 391.87 173.788 391.87 178.145V216.212C391.87 220.569 389.654 223.204 386.266 222.865Z" fill="white"/>
<path opacity="0.2" d="M386.266 222.865C361.43 220.387 333.726 204.367 308.889 178.145C305.501 174.57 303.286 169.378 303.286 165.021V126.954C303.286 122.597 305.501 119.962 308.889 120.301C333.726 122.779 361.43 138.799 386.266 165.021C389.654 168.596 391.87 173.788 391.87 178.145V216.212C391.87 220.569 389.654 223.204 386.266 222.865Z" fill="url(#paint51_linear_12_52)"/>
<path d="M338.287 140.861C341.362 139.139 345.376 139.295 349.728 141.826C359.449 147.462 367.346 162.542 367.346 175.51C367.346 182.58 365 187.564 361.299 189.729V189.755L339.59 202.436L316.525 153.567L338.287 140.861Z" fill="#D9D9DA"/>
<path opacity="0.2" d="M338.287 140.861C341.362 139.139 345.376 139.295 349.728 141.826C359.449 147.462 367.346 162.542 367.346 175.51C367.346 182.58 365 187.564 361.299 189.729V189.755L339.59 202.436L316.525 153.567L338.287 140.861Z" fill="url(#paint52_linear_12_52)"/>
<path d="M310.817 167.63C310.817 180.624 318.714 195.704 328.435 201.314C338.156 206.95 346.053 200.975 346.053 187.981C346.053 174.988 338.156 159.907 328.435 154.298C318.688 148.662 310.817 154.637 310.817 167.63Z" fill="white"/>
<path opacity="0.35" d="M310.817 167.63C310.817 180.624 318.714 195.704 328.435 201.314C338.156 206.95 346.053 200.975 346.053 187.981C346.053 174.988 338.156 159.907 328.435 154.298C318.688 148.662 310.817 154.637 310.817 167.63Z" fill="url(#paint53_linear_12_52)"/>
<path d="M319.366 172.587C319.366 179.267 323.405 187.016 328.409 189.886C333.413 192.782 337.453 189.703 337.453 183.05C337.453 176.371 333.413 168.622 328.409 165.752C323.431 162.829 319.366 165.908 319.366 172.587Z" fill="#782412"/>
<path d="M462.263 249.452L460.152 249.635C459.526 249.035 458.796 248.461 457.91 247.965C451.473 244.234 440.24 244.703 432.787 249.008C430.962 250.052 429.529 251.252 428.513 252.505L426.636 252.661V257.384C426.714 259.68 428.122 261.871 430.962 263.515C437.4 267.246 448.632 266.777 456.086 262.472C460.178 260.097 462.263 257.071 462.211 254.175V249.452H462.263Z" fill="#CFCFD1"/>
<path opacity="0.35" d="M462.263 249.452L460.152 249.635C459.526 249.035 458.796 248.461 457.91 247.965C451.473 244.234 440.24 244.703 432.787 249.008C430.962 250.052 429.529 251.252 428.513 252.505L426.636 252.661V257.384C426.714 259.68 428.122 261.871 430.962 263.515C437.4 267.246 448.632 266.777 456.086 262.472C460.178 260.097 462.263 257.071 462.211 254.175V249.452H462.263Z" fill="url(#paint54_linear_12_52)"/>
<path d="M456.112 257.749C448.684 262.054 437.426 262.524 430.988 258.793C424.551 255.062 425.359 248.565 432.787 244.286C440.214 239.981 451.473 239.511 457.91 243.242C464.374 246.947 463.566 253.47 456.112 257.749Z" fill="#D9D9DA"/>
<path opacity="0.2" d="M456.112 257.749C448.684 262.054 437.426 262.524 430.988 258.793C424.551 255.062 425.359 248.565 432.787 244.286C440.214 239.981 451.473 239.511 457.91 243.242C464.374 246.947 463.566 253.47 456.112 257.749Z" fill="url(#paint55_linear_12_52)"/>
<path d="M443.889 201.966C439.902 202.253 436.8 205.593 436.8 209.611V251.331C436.748 252.4 437.348 253.418 438.651 254.175C441.413 255.766 446.261 255.584 449.466 253.731C451.239 252.714 452.125 251.383 452.099 250.157V209.637C452.125 205.149 448.346 201.627 443.889 201.966Z" fill="#CFCFD1"/>
<g opacity="0.35">
<path d="M443.889 201.966C439.902 202.253 436.8 205.593 436.8 209.611V251.331C436.748 252.4 437.348 253.418 438.651 254.175C441.413 255.766 446.261 255.584 449.466 253.731C451.239 252.714 452.125 251.383 452.099 250.157V209.637C452.125 205.149 448.346 201.627 443.889 201.966Z" fill="url(#paint56_linear_12_52)"/>
</g>
<path d="M451.473 167.969C439.068 172.744 430.259 184.772 430.259 198.887C430.259 217.203 445.088 232.023 463.357 232.023C471.958 232.023 479.75 228.709 485.64 223.335L451.473 167.969Z" fill="#D9D9DA"/>
<path opacity="0.2" d="M451.473 167.969C439.068 172.744 430.259 184.772 430.259 198.887C430.259 217.203 445.088 232.023 463.357 232.023C471.958 232.023 479.75 228.709 485.64 223.335L451.473 167.969Z" fill="url(#paint57_linear_12_52)"/>
<path d="M484.012 224.663C492.346 219.636 491.539 202.992 482.209 187.489C472.879 171.986 458.559 163.493 450.224 168.521C441.889 173.548 442.696 190.191 452.026 205.695C461.357 221.198 475.677 229.69 484.012 224.663Z" fill="white"/>
<path d="M484.012 224.663C492.346 219.636 491.539 202.992 482.209 187.489C472.879 171.986 458.559 163.493 450.224 168.521C441.889 173.548 442.696 190.191 452.026 205.695C461.357 221.198 475.677 229.69 484.012 224.663Z" fill="white"/>
<path opacity="0.35" d="M468.179 171.857C480.662 180.754 490.305 199.018 489.68 212.689C489.054 226.335 478.421 230.197 465.938 221.3C453.454 212.402 443.811 194.139 444.437 180.467C445.036 166.847 455.669 162.986 468.179 171.857Z" fill="url(#paint58_linear_12_52)"/>
<path d="M467.944 177.075C477.822 184.094 485.406 198.522 484.911 209.298C484.415 220.073 476.023 223.126 466.146 216.107C456.269 209.089 448.685 194.66 449.18 183.885C449.675 173.083 458.067 170.056 467.944 177.075Z" fill="#782412"/>
<path opacity="0.2" d="M467.944 177.075C477.822 184.094 485.406 198.522 484.911 209.298C484.415 220.073 476.023 223.126 466.146 216.107C456.269 209.089 448.685 194.66 449.18 183.885C449.675 173.083 458.067 170.056 467.944 177.075Z" fill="url(#paint59_linear_12_52)"/>
<path d="M492.964 180.963C491.765 179.162 489.341 178.667 487.543 179.841L454.106 201.914C455.356 204.21 456.764 206.427 458.38 208.489L491.869 186.389C493.641 185.189 494.163 182.763 492.964 180.963Z" fill="#D9D9DA"/>
<path d="M492.964 180.963C491.765 179.162 489.341 178.667 487.543 179.841L454.106 201.914C455.356 204.21 456.764 206.427 458.38 208.489L491.869 186.389C493.641 185.189 494.163 182.763 492.964 180.963Z" fill="url(#paint60_linear_12_52)"/>
<path d="M498.568 182.189C498.568 186.286 495.232 189.625 491.14 189.625C487.048 189.625 483.712 186.286 483.712 182.189C483.712 178.093 487.048 174.753 491.14 174.753C495.258 174.753 498.568 178.093 498.568 182.189Z" fill="white"/>
<path opacity="0.35" d="M498.568 182.189C498.568 186.286 495.232 189.625 491.14 189.625C487.048 189.625 483.712 186.286 483.712 182.189C483.712 178.093 487.048 174.753 491.14 174.753C495.258 174.753 498.568 178.093 498.568 182.189Z" fill="url(#paint61_linear_12_52)"/>
<path d="M382.227 287.18V275.021L403.311 287.18V299.365L382.227 287.18Z" fill="#D9D9DA"/>
<path opacity="0.35" d="M382.227 287.18V275.021L403.311 287.18V299.365L382.227 287.18Z" fill="url(#paint62_linear_12_52)"/>
<path d="M382.227 275.021L410.191 258.845L431.249 271.03L403.311 287.18L382.227 275.021Z" fill="#E1E1E1"/>
<path opacity="0.2" d="M382.227 275.021L410.191 258.845L431.249 271.03L403.311 287.18L382.227 275.021Z" fill="url(#paint63_linear_12_52)"/>
<path d="M403.311 299.365L431.249 283.214V271.03L403.311 287.18V299.365Z" fill="#CFCFD1"/>
<path opacity="0.35" d="M403.311 299.365L431.249 283.214V271.03L403.311 287.18V299.365Z" fill="url(#paint64_linear_12_52)"/>
<path d="M324.943 248.8V236.615L303.885 248.8V260.984L324.943 248.8Z" fill="#D9D9DA"/>
<path opacity="0.35" d="M324.943 248.8V236.615L303.885 248.8V260.984L324.943 248.8Z" fill="url(#paint65_linear_12_52)"/>
<path d="M324.943 236.615L297.005 220.465L275.921 232.649L303.885 248.8L324.943 236.615Z" fill="#E1E1E1"/>
<path opacity="0.2" d="M324.943 236.615L297.005 220.465L275.921 232.649L303.885 248.8L324.943 236.615Z" fill="url(#paint66_linear_12_52)"/>
<path d="M303.885 260.984L275.921 244.834V232.649L303.885 248.8V260.984Z" fill="#CFCFD1"/>
<path opacity="0.35" d="M303.885 260.984L275.921 244.834V232.649L303.885 248.8V260.984Z" fill="url(#paint67_linear_12_52)"/>
<path d="M327.445 364.984C325.803 364.984 324.187 364.358 322.988 363.21C321.685 361.983 320.93 360.261 320.93 358.461V312.671C320.93 309.071 323.848 306.148 327.445 306.148C331.041 306.148 333.96 309.071 333.96 312.671V351.547L378.552 348.807C382.175 348.599 385.224 351.312 385.459 354.913C385.693 358.513 382.957 361.592 379.36 361.827L327.862 364.984C327.706 364.984 327.575 364.984 327.445 364.984Z" fill="#E1E1E1"/>
<g opacity="0.35">
<path d="M327.445 364.984C325.803 364.984 324.187 364.358 322.988 363.21C321.685 361.983 320.93 360.261 320.93 358.461V312.671C320.93 309.071 323.848 306.148 327.445 306.148C331.041 306.148 333.96 309.071 333.96 312.671V351.547L378.552 348.807C382.175 348.599 385.224 351.312 385.459 354.913C385.693 358.513 382.957 361.592 379.36 361.827L327.862 364.984C327.706 364.984 327.575 364.984 327.445 364.984Z" fill="url(#paint68_linear_12_52)"/>
</g>
<path d="M333.752 290.911C335.42 289.972 337.609 290.076 339.981 291.433C345.271 294.485 349.572 302.704 349.572 309.775C349.572 313.636 348.295 316.324 346.262 317.524L310.479 338.058L297.917 311.471L333.752 290.911Z" fill="#D9D9DA"/>
<path opacity="0.2" d="M333.752 290.911C335.42 289.972 337.609 290.076 339.981 291.433C345.271 294.485 349.572 302.704 349.572 309.775C349.572 313.636 348.295 316.324 346.262 317.524L310.479 338.058L297.917 311.471L333.752 290.911Z" fill="url(#paint69_linear_12_52)"/>
<path d="M294.842 319.089C294.842 326.16 299.142 334.379 304.432 337.432C309.723 340.484 314.023 337.249 314.023 330.178C314.023 323.107 309.723 314.889 304.432 311.836C299.142 308.783 294.842 312.019 294.842 319.089Z" fill="white"/>
<path opacity="0.35" d="M294.842 319.089C294.842 326.16 299.142 334.379 304.432 337.432C309.723 340.484 314.023 337.249 314.023 330.178C314.023 323.107 309.723 314.889 304.432 311.836C299.142 308.783 294.842 312.019 294.842 319.089Z" fill="url(#paint70_linear_12_52)"/>
<path d="M299.507 321.777C299.507 325.404 301.722 329.631 304.433 331.196C307.143 332.762 309.358 331.092 309.358 327.465C309.358 323.838 307.143 319.611 304.433 318.046C301.722 316.48 299.507 318.15 299.507 321.777Z" fill="#782412"/>
<path d="M383.139 340.719C381.549 339.832 379.464 339.91 377.223 341.215C372.193 344.137 368.101 351.938 368.101 358.644C368.101 362.296 369.326 364.879 371.229 366.001L377.874 370.019L389.811 344.737L383.139 340.719Z" fill="#D9D9DA"/>
<path opacity="0.35" d="M383.139 340.719C381.549 339.832 379.464 339.91 377.223 341.215C372.193 344.137 368.101 351.938 368.101 358.644C368.101 362.296 369.326 364.879 371.229 366.001L377.874 370.019L389.811 344.737L383.139 340.719Z" fill="url(#paint71_linear_12_52)"/>
<path d="M392.756 352.017C392.756 358.748 388.664 366.549 383.634 369.472C378.604 372.394 374.513 369.289 374.513 362.583C374.513 355.852 378.604 348.051 383.634 345.128C388.69 342.206 392.756 345.285 392.756 352.017Z" fill="white"/>
<path opacity="0.35" d="M392.756 352.017C392.756 358.748 388.664 366.549 383.634 369.472C378.604 372.394 374.513 369.289 374.513 362.583C374.513 355.852 378.604 348.051 383.634 345.128C388.69 342.206 392.756 345.285 392.756 352.017Z" fill="url(#paint72_linear_12_52)"/>
<path d="M388.326 354.574C388.326 358.018 386.241 362.036 383.634 363.523C381.054 365.011 378.943 363.419 378.943 359.975C378.943 356.53 381.028 352.512 383.634 351.025C386.241 349.538 388.326 351.129 388.326 354.574Z" fill="#782412"/>
<path d="M334.899 349.173C333.804 348.573 332.397 348.625 330.885 349.512C327.471 351.495 324.682 356.792 324.682 361.358C324.682 363.837 325.516 365.585 326.82 366.368L331.328 369.107L339.434 351.939L334.899 349.173Z" fill="#D9D9DA"/>
<path opacity="0.35" d="M334.899 349.173C333.804 348.573 332.397 348.625 330.885 349.512C327.471 351.495 324.682 356.792 324.682 361.358C324.682 363.837 325.516 365.585 326.82 366.368L331.328 369.107L339.434 351.939L334.899 349.173Z" fill="url(#paint73_linear_12_52)"/>
<path d="M341.441 356.87C341.441 361.436 338.678 366.733 335.238 368.716C331.824 370.699 329.035 368.585 329.035 364.019C329.035 359.453 331.798 354.156 335.238 352.173C338.678 350.19 341.441 352.304 341.441 356.87Z" fill="white"/>
<path opacity="0.35" d="M341.441 356.87C341.441 361.436 338.678 366.733 335.238 368.716C331.824 370.699 329.035 368.585 329.035 364.019C329.035 359.453 331.798 354.156 335.238 352.173C338.678 350.19 341.441 352.304 341.441 356.87Z" fill="url(#paint74_linear_12_52)"/>
<path d="M338.417 358.618C338.417 360.966 336.984 363.68 335.238 364.697C333.491 365.715 332.058 364.645 332.058 362.297C332.058 359.949 333.491 357.235 335.238 356.217C337.01 355.174 338.417 356.269 338.417 358.618Z" fill="#782412"/>
<path d="M243.891 265.811C242.796 265.211 241.415 265.263 239.877 266.15C236.463 268.134 233.674 273.43 233.674 277.996C233.674 280.475 234.508 282.223 235.812 283.006L240.32 285.746L248.426 268.577L243.891 265.811Z" fill="#D9D9DA"/>
<path opacity="0.35" d="M243.891 265.811C242.796 265.211 241.415 265.263 239.877 266.15C236.463 268.134 233.674 273.43 233.674 277.996C233.674 280.475 234.508 282.223 235.812 283.006L240.32 285.746L248.426 268.577L243.891 265.811Z" fill="url(#paint75_linear_12_52)"/>
<path d="M250.433 273.509C250.433 278.075 247.67 283.371 244.23 285.354C240.816 287.337 238.027 285.224 238.027 280.658C238.027 276.092 240.79 270.795 244.23 268.812C247.644 266.829 250.433 268.942 250.433 273.509Z" fill="white"/>
<path opacity="0.35" d="M250.433 273.509C250.433 278.075 247.67 283.371 244.23 285.354C240.816 287.337 238.027 285.224 238.027 280.658C238.027 276.092 240.79 270.795 244.23 268.812C247.644 266.829 250.433 268.942 250.433 273.509Z" fill="url(#paint76_linear_12_52)"/>
<path d="M247.409 275.23C247.409 277.579 245.976 280.292 244.23 281.31C242.483 282.328 241.05 281.258 241.05 278.909C241.05 276.561 242.483 273.847 244.23 272.83C245.976 271.812 247.409 272.882 247.409 275.23Z" fill="#782412"/>
<path d="M606.203 264.141C607.297 263.541 608.679 263.594 610.216 264.481C613.631 266.464 616.419 271.76 616.419 276.327C616.419 278.805 615.585 280.554 614.282 281.336L609.773 284.076L601.668 266.907L606.203 264.141Z" fill="#D9D9DA"/>
<path opacity="0.35" d="M606.203 264.141C607.297 263.541 608.679 263.594 610.216 264.481C613.631 266.464 616.419 271.76 616.419 276.327C616.419 278.805 615.585 280.554 614.282 281.336L609.773 284.076L601.668 266.907L606.203 264.141Z" fill="url(#paint77_linear_12_52)"/>
<path d="M599.687 271.813C599.687 276.379 602.45 281.675 605.89 283.658C609.304 285.641 612.093 283.528 612.093 278.962C612.093 274.396 609.33 269.099 605.89 267.116C602.45 265.159 599.687 267.246 599.687 271.813Z" fill="white"/>
<path opacity="0.35" d="M599.687 271.813C599.687 276.379 602.45 281.675 605.89 283.658C609.304 285.641 612.093 283.528 612.093 278.962C612.093 274.396 609.33 269.099 605.89 267.116C602.45 265.159 599.687 267.246 599.687 271.813Z" fill="url(#paint78_linear_12_52)"/>
<path d="M602.684 273.561C602.684 275.909 604.118 278.623 605.864 279.64C607.61 280.658 609.043 279.588 609.043 277.24C609.043 274.891 607.61 272.178 605.864 271.16C604.118 270.142 602.684 271.212 602.684 273.561Z" fill="#782412"/>
<path d="M126.092 240.712C124.997 240.111 123.616 240.164 122.078 241.051C118.664 243.034 115.875 248.331 115.875 252.897C115.875 255.375 116.709 257.124 118.012 257.906L122.521 260.646L130.627 243.477L126.092 240.712Z" fill="#D9D9DA"/>
<path opacity="0.35" d="M126.092 240.712C124.997 240.111 123.616 240.164 122.078 241.051C118.664 243.034 115.875 248.331 115.875 252.897C115.875 255.375 116.709 257.124 118.012 257.906L122.521 260.646L130.627 243.477L126.092 240.712Z" fill="url(#paint79_linear_12_52)"/>
<path d="M132.633 248.383C132.633 252.949 129.871 258.246 126.43 260.229C123.016 262.212 120.227 260.098 120.227 255.532C120.227 250.966 122.99 245.669 126.43 243.686C129.871 241.729 132.633 243.817 132.633 248.383Z" fill="white"/>
<path opacity="0.35" d="M132.633 248.383C132.633 252.949 129.871 258.246 126.43 260.229C123.016 262.212 120.227 260.098 120.227 255.532C120.227 250.966 122.99 245.669 126.43 243.686C129.871 241.729 132.633 243.817 132.633 248.383Z" fill="url(#paint80_linear_12_52)"/>
<path d="M129.61 250.131C129.61 252.479 128.176 255.192 126.43 256.21C124.684 257.228 123.251 256.158 123.251 253.81C123.251 251.461 124.684 248.748 126.43 247.73C128.203 246.712 129.61 247.782 129.61 250.131Z" fill="#782412"/>
<path d="M225.804 393.554C224.214 392.667 222.129 392.745 219.888 394.049C214.858 396.972 210.766 404.773 210.766 411.504C210.766 415.157 211.991 417.74 213.894 418.862L220.539 422.88L232.476 397.598L225.804 393.554Z" fill="#D9D9DA"/>
<path opacity="0.35" d="M225.804 393.554C224.214 392.667 222.129 392.745 219.888 394.049C214.858 396.972 210.766 404.773 210.766 411.504C210.766 415.157 211.991 417.74 213.894 418.862L220.539 422.88L232.476 397.598L225.804 393.554Z" fill="url(#paint81_linear_12_52)"/>
<path d="M235.421 404.877C235.421 411.609 231.329 419.41 226.299 422.306C221.269 425.202 217.177 422.124 217.177 415.392C217.177 408.66 221.269 400.859 226.299 397.963C231.329 395.041 235.421 398.146 235.421 404.877Z" fill="white"/>
<path opacity="0.35" d="M235.421 404.877C235.421 411.609 231.329 419.41 226.299 422.306C221.269 425.202 217.177 422.124 217.177 415.392C217.177 408.66 221.269 400.859 226.299 397.963C231.329 395.041 235.421 398.146 235.421 404.877Z" fill="url(#paint82_linear_12_52)"/>
<path d="M230.99 407.434C230.99 410.879 228.905 414.897 226.299 416.384C223.719 417.871 221.608 416.28 221.608 412.836C221.608 409.391 223.693 405.373 226.299 403.886C228.879 402.399 230.99 403.964 230.99 407.434Z" fill="#782412"/>
<path d="M301.826 379.752L333.074 397.807V383.326L301.826 365.271V379.752Z" fill="#F26C4F"/>
<path d="M370.786 188.529C372.376 187.642 374.461 187.72 376.702 189.025C381.732 191.947 385.824 199.748 385.824 206.454C385.824 210.106 384.599 212.69 382.696 213.811L376.051 217.83L364.114 192.547L370.786 188.529Z" fill="#CFCFD1"/>
<path opacity="0.2" d="M370.786 188.529C372.376 187.642 374.461 187.72 376.702 189.025C381.732 191.947 385.824 199.748 385.824 206.454C385.824 210.106 384.599 212.69 382.696 213.811L376.051 217.83L364.114 192.547L370.786 188.529Z" fill="url(#paint83_linear_12_52)"/>
<path d="M361.169 199.827C361.169 206.558 365.261 214.36 370.291 217.256C375.321 220.152 379.412 217.073 379.412 210.368C379.412 203.662 375.321 195.835 370.291 192.939C365.261 190.017 361.169 193.121 361.169 199.827Z" fill="white"/>
<path opacity="0.35" d="M361.169 199.827C361.169 206.558 365.261 214.36 370.291 217.256C375.321 220.152 379.412 217.073 379.412 210.368C379.412 203.662 375.321 195.835 370.291 192.939C365.261 190.017 361.169 193.121 361.169 199.827Z" fill="url(#paint84_linear_12_52)"/>
<path d="M365.6 202.41C365.6 205.854 367.685 209.872 370.291 211.359C372.871 212.847 374.982 211.255 374.982 207.811C374.982 204.367 372.897 200.348 370.291 198.861C367.685 197.374 365.6 198.94 365.6 202.41Z" fill="#782412"/>
<path d="M333.986 110.777V45.9929" stroke="white" stroke-width="2" stroke-miterlimit="10" stroke-linecap="round"/>
<path d="M333.987 48.994C337.571 48.994 340.476 46.0852 340.476 42.497C340.476 38.9088 337.571 36 333.987 36C330.402 36 327.497 38.9088 327.497 42.497C327.497 46.0852 330.402 48.994 333.987 48.994Z" fill="white"/>
<path d="M590.617 208.463C589.132 209.272 588.167 210.994 588.037 213.577C587.777 219.291 591.79 226.936 597.028 230.641C599.869 232.676 602.475 233.093 604.326 232.154L636.538 215.273L622.856 191.582L590.617 208.463Z" fill="#D9D9DA"/>
<path opacity="0.2" d="M590.617 208.463C589.132 209.272 588.167 210.994 588.037 213.577C587.777 219.291 591.79 226.936 597.028 230.641C599.869 232.676 602.475 233.093 604.326 232.154L636.538 215.273L622.856 191.582L590.617 208.463Z" fill="url(#paint85_linear_12_52)"/>
<path d="M629.997 193.173C635.209 196.878 639.249 204.523 638.988 210.237C638.727 215.951 634.271 217.569 629.058 213.838C623.846 210.107 619.806 202.488 620.067 196.774C620.328 191.06 624.784 189.468 629.997 193.173Z" fill="white"/>
<path d="M629.762 198.209C632.447 200.114 634.506 204.054 634.376 206.976C634.245 209.899 631.952 210.733 629.267 208.829C626.583 206.924 624.524 202.984 624.654 200.062C624.81 197.113 627.078 196.304 629.762 198.209Z" fill="#782412"/>
<defs>
<linearGradient id="paint0_linear_12_52" x1="519.784" y1="306.675" x2="669.302" y2="211.161" gradientUnits="userSpaceOnUse">
<stop stop-color="#EF4723"/>
<stop offset="1" stop-color="#EF4723" stop-opacity="0"/>
</linearGradient>
<linearGradient id="paint1_linear_12_52" x1="270.385" y1="341.061" x2="139.076" y2="224.232" gradientUnits="userSpaceOnUse">
<stop stop-color="#EF4723"/>
<stop offset="1" stop-color="#EF4723" stop-opacity="0"/>
</linearGradient>
<linearGradient id="paint2_linear_12_52" x1="100.002" y1="203.625" x2="144.691" y2="203.625" gradientUnits="userSpaceOnUse">
<stop stop-color="#EF4723"/>
<stop offset="1" stop-color="#EF4723" stop-opacity="0"/>
</linearGradient>
<linearGradient id="paint3_linear_12_52" x1="137.378" y1="218.032" x2="154.786" y2="176.3" gradientUnits="userSpaceOnUse">
<stop stop-color="#EF4723"/>
<stop offset="1" stop-color="#EF4723" stop-opacity="0"/>
</linearGradient>
<linearGradient id="paint4_linear_12_52" x1="158.188" y1="429.189" x2="205.83" y2="349.332" gradientUnits="userSpaceOnUse">
<stop stop-color="#EF4723"/>
<stop offset="0.5" stop-color="#EF4723" stop-opacity="0"/>
<stop offset="1" stop-color="#EF4723"/>
</linearGradient>
<linearGradient id="paint5_linear_12_52" x1="158.188" y1="429.189" x2="205.83" y2="349.332" gradientUnits="userSpaceOnUse">
<stop stop-color="#EF4723"/>
<stop offset="0.5" stop-color="#EF4723" stop-opacity="0"/>
<stop offset="1" stop-color="#EF4723"/>
</linearGradient>
<linearGradient id="paint6_linear_12_52" x1="199.7" y1="426.609" x2="262.362" y2="297.513" gradientUnits="userSpaceOnUse">
<stop stop-color="#EF4723"/>
<stop offset="1" stop-color="#EF4723" stop-opacity="0"/>
</linearGradient>
<linearGradient id="paint7_linear_12_52" x1="251.737" y1="375.387" x2="299.379" y2="295.53" gradientUnits="userSpaceOnUse">
<stop stop-color="#EF4723"/>
<stop offset="0.5" stop-color="#EF4723" stop-opacity="0"/>
<stop offset="1" stop-color="#EF4723"/>
</linearGradient>
<linearGradient id="paint8_linear_12_52" x1="293.248" y1="372.806" x2="355.911" y2="243.71" gradientUnits="userSpaceOnUse">
<stop stop-color="#EF4723"/>
<stop offset="1" stop-color="#EF4723" stop-opacity="0"/>
</linearGradient>
<linearGradient id="paint9_linear_12_52" x1="345.707" y1="321.169" x2="393.349" y2="241.312" gradientUnits="userSpaceOnUse">
<stop stop-color="#EF4723"/>
<stop offset="0.5" stop-color="#EF4723" stop-opacity="0"/>
<stop offset="1" stop-color="#EF4723"/>
</linearGradient>
<linearGradient id="paint10_linear_12_52" x1="387.219" y1="318.589" x2="449.882" y2="189.493" gradientUnits="userSpaceOnUse">
<stop stop-color="#EF4723"/>
<stop offset="1" stop-color="#EF4723" stop-opacity="0"/>
</linearGradient>
<linearGradient id="paint11_linear_12_52" x1="199.473" y1="340.09" x2="286.636" y2="340.09" gradientUnits="userSpaceOnUse">
<stop stop-color="#EF4723"/>
<stop offset="1" stop-color="#EF4723" stop-opacity="0"/>
</linearGradient>
<linearGradient id="paint12_linear_12_52" x1="164.005" y1="466.75" x2="317.353" y2="243.18" gradientUnits="userSpaceOnUse">
<stop stop-color="#EF4723"/>
<stop offset="1" stop-color="#EF4723" stop-opacity="0"/>
</linearGradient>
<linearGradient id="paint13_linear_12_52" x1="224.952" y1="311.908" x2="319.727" y2="311.908" gradientUnits="userSpaceOnUse">
<stop stop-color="#EF4723"/>
<stop offset="1" stop-color="#EF4723" stop-opacity="0"/>
</linearGradient>
<linearGradient id="paint14_linear_12_52" x1="264.217" y1="303.124" x2="325.414" y2="241.996" gradientUnits="userSpaceOnUse">
<stop stop-color="#EF4723"/>
<stop offset="1" stop-color="#EF4723" stop-opacity="0"/>
</linearGradient>
<linearGradient id="paint15_linear_12_52" x1="264.521" y1="319.3" x2="264.521" y2="257.295" gradientUnits="userSpaceOnUse">
<stop stop-color="#EF4723"/>
<stop offset="1" stop-color="#EF4723" stop-opacity="0"/>
</linearGradient>
<linearGradient id="paint16_linear_12_52" x1="246.256" y1="322.105" x2="292.818" y2="275.596" gradientUnits="userSpaceOnUse">
<stop stop-color="#EF4723"/>
<stop offset="1" stop-color="#EF4723" stop-opacity="0"/>
</linearGradient>
<linearGradient id="paint17_linear_12_52" x1="236.426" y1="314.439" x2="288.22" y2="262.704" gradientUnits="userSpaceOnUse">
<stop stop-color="#EF4723"/>
<stop offset="1" stop-color="#EF4723" stop-opacity="0"/>
</linearGradient>
<linearGradient id="paint18_linear_12_52" x1="330.973" y1="284.972" x2="529.149" y2="142.591" gradientUnits="userSpaceOnUse">
<stop stop-color="#EF4723"/>
<stop offset="1" stop-color="#EF4723" stop-opacity="0"/>
</linearGradient>
<linearGradient id="paint19_linear_12_52" x1="456.757" y1="193.179" x2="639.325" y2="320.833" gradientUnits="userSpaceOnUse">
<stop stop-color="#EF4723"/>
<stop offset="1" stop-color="#EF4723" stop-opacity="0"/>
</linearGradient>
<linearGradient id="paint20_linear_12_52" x1="391.501" y1="216.242" x2="615.788" y2="66.8854" gradientUnits="userSpaceOnUse">
<stop stop-color="#EF4723"/>
<stop offset="1" stop-color="#EF4723" stop-opacity="0"/>
</linearGradient>
<linearGradient id="paint21_linear_12_52" x1="368.893" y1="379.307" x2="559.185" y2="231.953" gradientUnits="userSpaceOnUse">
<stop stop-color="#EF4723"/>
<stop offset="1" stop-color="#EF4723" stop-opacity="0"/>
</linearGradient>
<linearGradient id="paint22_linear_12_52" x1="240.341" y1="411.019" x2="379.544" y2="271.972" gradientUnits="userSpaceOnUse">
<stop stop-color="#EF4723"/>
<stop offset="1" stop-color="#EF4723" stop-opacity="0"/>
</linearGradient>
<linearGradient id="paint23_linear_12_52" x1="280.599" y1="446.422" x2="347.582" y2="363.874" gradientUnits="userSpaceOnUse">
<stop stop-color="#EF4723"/>
<stop offset="0.4202" stop-color="#EF4723" stop-opacity="0.5717"/>
<stop offset="1" stop-color="#EF4723" stop-opacity="0"/>
</linearGradient>
<linearGradient id="paint24_linear_12_52" x1="419.635" y1="381.253" x2="479.211" y2="381.253" gradientUnits="userSpaceOnUse">
<stop stop-color="#EF4723"/>
<stop offset="1" stop-color="#EF4723" stop-opacity="0"/>
</linearGradient>
<linearGradient id="paint25_linear_12_52" x1="324.745" y1="588.391" x2="527.048" y2="270.937" gradientUnits="userSpaceOnUse">
<stop stop-color="#EF4723"/>
<stop offset="1" stop-color="#EF4723" stop-opacity="0"/>
</linearGradient>
<linearGradient id="paint26_linear_12_52" x1="340.821" y1="411.872" x2="427.985" y2="411.872" gradientUnits="userSpaceOnUse">
<stop stop-color="#EF4723"/>
<stop offset="1" stop-color="#EF4723" stop-opacity="0"/>
</linearGradient>
<linearGradient id="paint27_linear_12_52" x1="425.092" y1="384.433" x2="484.668" y2="384.433" gradientUnits="userSpaceOnUse">
<stop stop-color="#EF4723"/>
<stop offset="1" stop-color="#EF4723" stop-opacity="0"/>
</linearGradient>
<linearGradient id="paint28_linear_12_52" x1="411.824" y1="352.722" x2="552.43" y2="352.722" gradientUnits="userSpaceOnUse">
<stop stop-color="#EF4723" stop-opacity="0"/>
<stop offset="1" stop-color="#EF4723"/>
</linearGradient>
<linearGradient id="paint29_linear_12_52" x1="328.6" y1="527.872" x2="376.242" y2="448.015" gradientUnits="userSpaceOnUse">
<stop stop-color="#EF4723"/>
<stop offset="0.5" stop-color="#EF4723" stop-opacity="0"/>
<stop offset="1" stop-color="#EF4723"/>
</linearGradient>
<linearGradient id="paint30_linear_12_52" x1="328.6" y1="527.872" x2="376.242" y2="448.016" gradientUnits="userSpaceOnUse">
<stop stop-color="#EF4723"/>
<stop offset="0.5" stop-color="#EF4723" stop-opacity="0"/>
<stop offset="1" stop-color="#EF4723"/>
</linearGradient>
<linearGradient id="paint31_linear_12_52" x1="370.112" y1="525.292" x2="432.775" y2="396.196" gradientUnits="userSpaceOnUse">
<stop stop-color="#EF4723"/>
<stop offset="1" stop-color="#EF4723" stop-opacity="0"/>
</linearGradient>
<linearGradient id="paint32_linear_12_52" x1="422.149" y1="474.07" x2="469.791" y2="394.213" gradientUnits="userSpaceOnUse">
<stop stop-color="#EF4723"/>
<stop offset="0.5" stop-color="#EF4723" stop-opacity="0"/>
<stop offset="1" stop-color="#EF4723"/>
</linearGradient>
<linearGradient id="paint33_linear_12_52" x1="422.149" y1="474.07" x2="469.791" y2="394.213" gradientUnits="userSpaceOnUse">
<stop stop-color="#EF4723"/>
<stop offset="0.5" stop-color="#EF4723" stop-opacity="0"/>
<stop offset="1" stop-color="#EF4723"/>
</linearGradient>
<linearGradient id="paint34_linear_12_52" x1="463.66" y1="471.49" x2="526.323" y2="342.394" gradientUnits="userSpaceOnUse">
<stop stop-color="#EF4723"/>
<stop offset="1" stop-color="#EF4723" stop-opacity="0"/>
</linearGradient>
<linearGradient id="paint35_linear_12_52" x1="515.785" y1="420.184" x2="563.427" y2="340.327" gradientUnits="userSpaceOnUse">
<stop stop-color="#EF4723"/>
<stop offset="0.5" stop-color="#EF4723" stop-opacity="0"/>
<stop offset="1" stop-color="#EF4723"/>
</linearGradient>
<linearGradient id="paint36_linear_12_52" x1="515.785" y1="420.184" x2="563.427" y2="340.327" gradientUnits="userSpaceOnUse">
<stop stop-color="#EF4723"/>
<stop offset="0.5" stop-color="#EF4723" stop-opacity="0"/>
<stop offset="1" stop-color="#EF4723"/>
</linearGradient>
<linearGradient id="paint37_linear_12_52" x1="557.297" y1="417.603" x2="619.96" y2="288.507" gradientUnits="userSpaceOnUse">
<stop stop-color="#EF4723"/>
<stop offset="1" stop-color="#EF4723" stop-opacity="0"/>
</linearGradient>
<linearGradient id="paint38_linear_12_52" x1="412.376" y1="352.153" x2="433.474" y2="323.692" gradientUnits="userSpaceOnUse">
<stop stop-color="#EF4723"/>
<stop offset="1" stop-color="#EF4723" stop-opacity="0"/>
</linearGradient>
<linearGradient id="paint39_linear_12_52" x1="417.368" y1="358.343" x2="439.234" y2="316.291" gradientUnits="userSpaceOnUse">
<stop stop-color="#EF4723"/>
<stop offset="1" stop-color="#EF4723" stop-opacity="0"/>
</linearGradient>
<linearGradient id="paint40_linear_12_52" x1="473.821" y1="342.842" x2="494.918" y2="314.382" gradientUnits="userSpaceOnUse">
<stop stop-color="#EF4723"/>
<stop offset="1" stop-color="#EF4723" stop-opacity="0"/>
</linearGradient>
<linearGradient id="paint41_linear_12_52" x1="478.813" y1="349.032" x2="500.678" y2="306.98" gradientUnits="userSpaceOnUse">
<stop stop-color="#EF4723"/>
<stop offset="1" stop-color="#EF4723" stop-opacity="0"/>
</linearGradient>
<linearGradient id="paint42_linear_12_52" x1="268.969" y1="402.485" x2="290.668" y2="402.485" gradientUnits="userSpaceOnUse">
<stop stop-color="#EF4723"/>
<stop offset="1" stop-color="#EF4723" stop-opacity="0"/>
</linearGradient>
<linearGradient id="paint43_linear_12_52" x1="266.754" y1="413.073" x2="290.083" y2="389.769" gradientUnits="userSpaceOnUse">
<stop stop-color="#EF4723"/>
<stop offset="1" stop-color="#EF4723" stop-opacity="0"/>
</linearGradient>
<linearGradient id="paint44_linear_12_52" x1="333.382" y1="230.982" x2="354.447" y2="230.982" gradientUnits="userSpaceOnUse">
<stop stop-color="#EF4723"/>
<stop offset="1" stop-color="#EF4723" stop-opacity="0"/>
</linearGradient>
<linearGradient id="paint45_linear_12_52" x1="305.436" y1="216.818" x2="354.447" y2="216.818" gradientUnits="userSpaceOnUse">
<stop stop-color="#EF4723"/>
<stop offset="1" stop-color="#EF4723" stop-opacity="0"/>
</linearGradient>
<linearGradient id="paint46_linear_12_52" x1="305.436" y1="228.993" x2="345.316" y2="228.993" gradientUnits="userSpaceOnUse">
<stop stop-color="#EF4723"/>
<stop offset="1" stop-color="#EF4723" stop-opacity="0"/>
</linearGradient>
<linearGradient id="paint47_linear_12_52" x1="329.942" y1="254.265" x2="401.227" y2="254.265" gradientUnits="userSpaceOnUse">
<stop stop-color="#EF4723"/>
<stop offset="0.5" stop-color="#EF4723" stop-opacity="0"/>
<stop offset="1" stop-color="#EF4723"/>
</linearGradient>
<linearGradient id="paint48_linear_12_52" x1="336.923" y1="273.504" x2="409.739" y2="200.769" gradientUnits="userSpaceOnUse">
<stop stop-color="#EF4723"/>
<stop offset="1" stop-color="#EF4723" stop-opacity="0"/>
</linearGradient>
<linearGradient id="paint49_linear_12_52" x1="344.444" y1="207.989" x2="386.741" y2="207.989" gradientUnits="userSpaceOnUse">
<stop stop-color="#EF4723"/>
<stop offset="0.0231" stop-color="#EF4723" stop-opacity="0.9537"/>
<stop offset="0.5" stop-color="#EF4723" stop-opacity="0"/>
<stop offset="0.9769" stop-color="#EF4723" stop-opacity="0.9537"/>
<stop offset="1" stop-color="#EF4723"/>
</linearGradient>
<linearGradient id="paint50_linear_12_52" x1="305.167" y1="160.185" x2="429.473" y2="160.185" gradientUnits="userSpaceOnUse">
<stop stop-color="#EF4723"/>
<stop offset="1" stop-color="#EF4723" stop-opacity="0"/>
</linearGradient>
<linearGradient id="paint51_linear_12_52" x1="310.894" y1="208.308" x2="447.259" y2="72.0964" gradientUnits="userSpaceOnUse">
<stop stop-color="#EF4723"/>
<stop offset="1" stop-color="#EF4723" stop-opacity="0"/>
</linearGradient>
<linearGradient id="paint52_linear_12_52" x1="316.529" y1="171.083" x2="367.346" y2="171.083" gradientUnits="userSpaceOnUse">
<stop stop-color="#EF4723"/>
<stop offset="1" stop-color="#EF4723" stop-opacity="0"/>
</linearGradient>
<linearGradient id="paint53_linear_12_52" x1="312.785" y1="193.46" x2="378.499" y2="127.819" gradientUnits="userSpaceOnUse">
<stop stop-color="#EF4723"/>
<stop offset="1" stop-color="#EF4723" stop-opacity="0"/>
</linearGradient>
<linearGradient id="paint54_linear_12_52" x1="426.668" y1="255.738" x2="462.269" y2="255.738" gradientUnits="userSpaceOnUse">
<stop stop-color="#EF4723"/>
<stop offset="0.0231" stop-color="#EF4723" stop-opacity="0.9537"/>
<stop offset="0.5" stop-color="#EF4723" stop-opacity="0"/>
<stop offset="0.9769" stop-color="#EF4723" stop-opacity="0.9537"/>
<stop offset="1" stop-color="#EF4723"/>
</linearGradient>
<linearGradient id="paint55_linear_12_52" x1="426.664" y1="251.018" x2="462.271" y2="251.018" gradientUnits="userSpaceOnUse">
<stop stop-color="#EF4723"/>
<stop offset="1" stop-color="#EF4723" stop-opacity="0"/>
</linearGradient>
<linearGradient id="paint56_linear_12_52" x1="436.814" y1="228.603" x2="452.132" y2="228.603" gradientUnits="userSpaceOnUse">
<stop stop-color="#EF4723"/>
<stop offset="0.5" stop-color="#EF4723" stop-opacity="0"/>
<stop offset="1" stop-color="#EF4723"/>
</linearGradient>
<linearGradient id="paint57_linear_12_52" x1="430.262" y1="199.988" x2="485.661" y2="199.988" gradientUnits="userSpaceOnUse">
<stop stop-color="#EF4723"/>
<stop offset="1" stop-color="#EF4723" stop-opacity="0"/>
</linearGradient>
<linearGradient id="paint58_linear_12_52" x1="482.141" y1="229.223" x2="446.675" y2="152.72" gradientUnits="userSpaceOnUse">
<stop stop-color="#EF4723"/>
<stop offset="1" stop-color="#EF4723" stop-opacity="0"/>
</linearGradient>
<linearGradient id="paint59_linear_12_52" x1="449.159" y1="196.589" x2="484.933" y2="196.589" gradientUnits="userSpaceOnUse">
<stop stop-color="#EF4723"/>
<stop offset="1" stop-color="#EF4723" stop-opacity="0"/>
</linearGradient>
<linearGradient id="paint60_linear_12_52" x1="454.89" y1="164.135" x2="493.778" y2="221.408" gradientUnits="userSpaceOnUse">
<stop stop-color="#EF4723"/>
<stop offset="0.5" stop-color="#EF4723" stop-opacity="0"/>
<stop offset="1" stop-color="#EF4723"/>
</linearGradient>
<linearGradient id="paint61_linear_12_52" x1="482.343" y1="191.008" x2="506.497" y2="166.881" gradientUnits="userSpaceOnUse">
<stop stop-color="#EF4723"/>
<stop offset="1" stop-color="#EF4723" stop-opacity="0"/>
</linearGradient>
<linearGradient id="paint62_linear_12_52" x1="382.234" y1="287.187" x2="418.626" y2="287.187" gradientUnits="userSpaceOnUse">
<stop stop-color="#EF4723"/>
<stop offset="1" stop-color="#EF4723" stop-opacity="0"/>
</linearGradient>
<linearGradient id="paint63_linear_12_52" x1="382.234" y1="273.022" x2="431.245" y2="273.022" gradientUnits="userSpaceOnUse">
<stop stop-color="#EF4723"/>
<stop offset="1" stop-color="#EF4723" stop-opacity="0"/>
</linearGradient>
<linearGradient id="paint64_linear_12_52" x1="403.3" y1="285.198" x2="446.638" y2="285.198" gradientUnits="userSpaceOnUse">
<stop stop-color="#EF4723"/>
<stop offset="1" stop-color="#EF4723" stop-opacity="0"/>
</linearGradient>
<linearGradient id="paint65_linear_12_52" x1="292.475" y1="248.804" x2="334.236" y2="248.804" gradientUnits="userSpaceOnUse">
<stop stop-color="#EF4723"/>
<stop offset="1" stop-color="#EF4723" stop-opacity="0"/>
</linearGradient>
<linearGradient id="paint66_linear_12_52" x1="275.932" y1="234.64" x2="324.943" y2="234.64" gradientUnits="userSpaceOnUse">
<stop stop-color="#EF4723"/>
<stop offset="1" stop-color="#EF4723" stop-opacity="0"/>
</linearGradient>
<linearGradient id="paint67_linear_12_52" x1="275.932" y1="246.815" x2="311.215" y2="246.815" gradientUnits="userSpaceOnUse">
<stop stop-color="#EF4723"/>
<stop offset="1" stop-color="#EF4723" stop-opacity="0"/>
</linearGradient>
<linearGradient id="paint68_linear_12_52" x1="373.102" y1="369.677" x2="307.895" y2="321.045" gradientUnits="userSpaceOnUse">
<stop stop-color="#EF4723"/>
<stop offset="1" stop-color="#EF4723" stop-opacity="0"/>
</linearGradient>
<linearGradient id="paint69_linear_12_52" x1="297.968" y1="314.168" x2="349.579" y2="314.168" gradientUnits="userSpaceOnUse">
<stop stop-color="#EF4723"/>
<stop offset="1" stop-color="#EF4723" stop-opacity="0"/>
</linearGradient>
<linearGradient id="paint70_linear_12_52" x1="295.398" y1="333.688" x2="321.089" y2="308.026" gradientUnits="userSpaceOnUse">
<stop stop-color="#EF4723"/>
<stop offset="1" stop-color="#EF4723" stop-opacity="0"/>
</linearGradient>
<linearGradient id="paint71_linear_12_52" x1="375.046" y1="358.06" x2="396.143" y2="329.6" gradientUnits="userSpaceOnUse">
<stop stop-color="#EF4723"/>
<stop offset="1" stop-color="#EF4723" stop-opacity="0"/>
</linearGradient>
<linearGradient id="paint72_linear_12_52" x1="380.038" y1="364.25" x2="401.904" y2="322.198" gradientUnits="userSpaceOnUse">
<stop stop-color="#EF4723"/>
<stop offset="1" stop-color="#EF4723" stop-opacity="0"/>
</linearGradient>
<linearGradient id="paint73_linear_12_52" x1="329.406" y1="360.968" x2="343.736" y2="341.637" gradientUnits="userSpaceOnUse">
<stop stop-color="#EF4723"/>
<stop offset="1" stop-color="#EF4723" stop-opacity="0"/>
</linearGradient>
<linearGradient id="paint74_linear_12_52" x1="332.797" y1="365.173" x2="347.649" y2="336.608" gradientUnits="userSpaceOnUse">
<stop stop-color="#EF4723"/>
<stop offset="1" stop-color="#EF4723" stop-opacity="0"/>
</linearGradient>
<linearGradient id="paint75_linear_12_52" x1="238.387" y1="277.601" x2="252.718" y2="258.269" gradientUnits="userSpaceOnUse">
<stop stop-color="#EF4723"/>
<stop offset="1" stop-color="#EF4723" stop-opacity="0"/>
</linearGradient>
<linearGradient id="paint76_linear_12_52" x1="241.778" y1="281.806" x2="256.631" y2="253.242" gradientUnits="userSpaceOnUse">
<stop stop-color="#EF4723"/>
<stop offset="1" stop-color="#EF4723" stop-opacity="0"/>
</linearGradient>
<linearGradient id="paint77_linear_12_52" x1="611.721" y1="275.921" x2="597.391" y2="256.589" gradientUnits="userSpaceOnUse">
<stop stop-color="#EF4723"/>
<stop offset="1" stop-color="#EF4723" stop-opacity="0"/>
</linearGradient>
<linearGradient id="paint78_linear_12_52" x1="608.33" y1="280.125" x2="593.478" y2="251.561" gradientUnits="userSpaceOnUse">
<stop stop-color="#EF4723"/>
<stop offset="1" stop-color="#EF4723" stop-opacity="0"/>
</linearGradient>
<linearGradient id="paint79_linear_12_52" x1="120.598" y1="252.491" x2="134.929" y2="233.159" gradientUnits="userSpaceOnUse">
<stop stop-color="#EF4723"/>
<stop offset="1" stop-color="#EF4723" stop-opacity="0"/>
</linearGradient>
<linearGradient id="paint80_linear_12_52" x1="123.989" y1="256.696" x2="138.841" y2="228.132" gradientUnits="userSpaceOnUse">
<stop stop-color="#EF4723"/>
<stop offset="1" stop-color="#EF4723" stop-opacity="0"/>
</linearGradient>
<linearGradient id="paint81_linear_12_52" x1="217.701" y1="410.906" x2="238.798" y2="382.445" gradientUnits="userSpaceOnUse">
<stop stop-color="#EF4723"/>
<stop offset="1" stop-color="#EF4723" stop-opacity="0"/>
</linearGradient>
<linearGradient id="paint82_linear_12_52" x1="222.693" y1="417.095" x2="244.558" y2="375.044" gradientUnits="userSpaceOnUse">
<stop stop-color="#EF4723"/>
<stop offset="1" stop-color="#EF4723" stop-opacity="0"/>
</linearGradient>
<linearGradient id="paint83_linear_12_52" x1="364.131" y1="202.901" x2="385.829" y2="202.901" gradientUnits="userSpaceOnUse">
<stop stop-color="#EF4723"/>
<stop offset="1" stop-color="#EF4723" stop-opacity="0"/>
</linearGradient>
<linearGradient id="paint84_linear_12_52" x1="361.687" y1="213.717" x2="386.737" y2="188.695" gradientUnits="userSpaceOnUse">
<stop stop-color="#EF4723"/>
<stop offset="1" stop-color="#EF4723" stop-opacity="0"/>
</linearGradient>
<linearGradient id="paint85_linear_12_52" x1="588.036" y1="212.095" x2="636.545" y2="212.095" gradientUnits="userSpaceOnUse">
<stop stop-color="#EF4723"/>
<stop offset="1" stop-color="#EF4723" stop-opacity="0"/>
</linearGradient>
</defs>
</svg>
